# xmcd
#
# Track frame offsets: 
#        150
#        15514
#        34950
#        51645
#        66120
#        79430
#        97135
#        114675
#        132345
#        148030
#        165929
#        183918
#        197805
#        219717
#        236282
#        253017
#        270301
#        285619
#
# Disc length: 4008 seconds
#
# Revision: 0
# Processed by: cddbd v1.5.2PL0 Copyright (c) Steve Scherf et al.
# Submitted via: ExactAudioCopyFreeDBPlugin 1.0
#
DISCID=0e0fa612
DTITLE=Gwen Sebastian - Once Upon A Time In The West
DYEAR=2017
DGENRE=Country
TTITLE0=Once Upon A Time In The Wes
TTITLE1=Blue Flame
TTITLE2=Cadillac
TTITLE3=Wing and A Feather
TTITLE4=Love Birds
TTITLE5=Ain´t All That Bad
TTITLE6=Opium Angel
TTITLE7=Oh Cowboy
TTITLE8=Quicksand
TTITLE9=Circus Train
TTITLE10=Good Morning
TTITLE11=Crazy Ladies
TTITLE12=Cry To Jackson
TTITLE13=Losers And Lashes
TTITLE14=Drunk Or Stoned
TTITLE15=I´m Not With The Band
TTITLE16=Rock Stars
TTITLE17=Way To Go
EXTD=
EXTT0=
EXTT1=
EXTT2=
EXTT3=
EXTT4=
EXTT5=
EXTT6=
EXTT7=
EXTT8=
EXTT9=
EXTT10=
EXTT11=
EXTT12=
EXTT13=
EXTT14=
EXTT15=
EXTT16=
EXTT17=
PLAYORDER=
